<?xml version="1.0" standalone="no"?><!DOCTYPE svg PUBLIC "-//W3C//DTD SVG 1.1//EN" "http://www.w3.org/Graphics/SVG/1.1/DTD/svg11.dtd"><svg t="1712853264663" class="icon" viewBox="0 0 1024 1024" version="1.1" xmlns="http://www.w3.org/2000/svg" p-id="15065" xmlns:xlink="http://www.w3.org/1999/xlink" width="48" height="48"><path d="M511.2 1023.4C229.6 1023.4 0 793.8 0 512.2 0 230.7 229.6 1.1 511.2 1.1s511.2 229.6 511.2 511.2c0 281.5-229.6 511.1-511.2 511.1z m0-952.2c-243 0-441.1 198-441.1 441.1 0 243 198 441.1 441.1 441.1 243 0 441.1-198 441.1-441.1C952.3 269.2 754.2 71.2 511.2 71.2z m0 0" p-id="15066" fill="#ffffff"></path><path d="M559.7 209.6c33.9 8.2 50.2 47.9 42.6 81.8-8.2 33.9-39.7 62.5-73.6 54.3-33.9-8.2-46.7-47.3-39.1-81.2 8.2-33.8 36.2-63.1 70.1-54.9zM414.2 460.2s102.2-89.4 142-71.9c26.9 7 12.3 127.9 8.2 144.3-1.2 14.6-24.5 198.6-18.7 206.8 8.2 30.4 17.5 6.4 46.2-17.5 0 0 67.2-45.6-4.7 49.1-59.6 63.7-117.4 55.5-126.2 7.6-7-36.2 21.6-255.3 28.6-304.4 2.3-16.4-18.1 0-18.1 0s-55.5 34.5-68.9 11.1c-3.5-6.4 1.7-16.3 11.6-25.1z m0 0" p-id="15067" fill="#ffffff"></path></svg>