<?xml version="1.0" standalone="no"?><!DOCTYPE svg PUBLIC "-//W3C//DTD SVG 1.1//EN" "http://www.w3.org/Graphics/SVG/1.1/DTD/svg11.dtd"><svg t="1712826339671" class="icon" viewBox="0 0 1024 1024" version="1.1" xmlns="http://www.w3.org/2000/svg" p-id="1491" xmlns:xlink="http://www.w3.org/1999/xlink" width="48" height="48"><path d="M597.333333 85.333333c0-46.933333-38.4-85.333333-85.333333-85.333333H85.333333C38.4 0 0 38.4 0 85.333333v426.666667c0 46.933333 38.4 85.333333 85.333333 85.333333h426.666667c46.933333 0 85.333333-38.4 85.333333-85.333333V85.333333z m-170.666666 469.333334H110.933333c-34.133333 0-68.266667-12.8-68.266666-68.266667V110.933333C42.666667 64 64 42.666667 110.933333 42.666667h371.2c46.933333 0 72.533333 17.066667 72.533334 64v375.466666c0 46.933333-21.333333 72.533333-68.266667 72.533334H426.666667z" fill="#979797" p-id="1492"></path><path d="M448 187.733333h-128V106.666667c0-12.8-8.533333-21.333333-21.333333-21.333334s-21.333333 8.533333-21.333334 21.333334v81.066666h-128c-12.8 0-21.333333 8.533333-21.333333 21.333334V384c0 12.8 8.533333 21.333333 21.333333 21.333333h128v85.333334c0 12.8 8.533333 21.333333 21.333334 21.333333s21.333333-8.533333 21.333333-21.333333v-85.333334h128c12.8 0 21.333333-8.533333 21.333333-21.333333V209.066667c0-12.8-8.533333-21.333333-21.333333-21.333334z m-170.666667 174.933334H170.666667V230.4h106.666666v132.266667z m149.333334 0H320V230.4H426.666667v132.266667z" fill="#979797" p-id="1493"></path><path d="M896 1024h42.666667c46.933333 0 85.333333-38.4 85.333333-85.333333V512c0-46.933333-38.4-85.333333-85.333333-85.333333H512c-46.933333 0-85.333333 38.4-85.333333 85.333333v426.666667c0 46.933333 38.4 85.333333 85.333333 85.333333h384z" fill="#4C6CFF" p-id="1494"></path><path d="M878.933333 861.866667l-128-302.933334c-4.266667-8.533333-12.8-12.8-21.333333-12.8s-17.066667 4.266667-21.333333 12.8l-128 302.933334c-12.8 25.6 29.866667 42.666667 38.4 17.066666l42.666666-102.4h136.533334l42.666666 102.4c8.533333 25.6 46.933333 8.533333 38.4-17.066666z m-200.533333-128l46.933333-115.2 46.933334 115.2h-93.866667z" fill="#FFFFFF" p-id="1495"></path></svg>