<?xml version="1.0" standalone="no"?><!DOCTYPE svg PUBLIC "-//W3C//DTD SVG 1.1//EN" "http://www.w3.org/Graphics/SVG/1.1/DTD/svg11.dtd"><svg t="1713109004250" class="icon" viewBox="0 0 1024 1024" version="1.1" xmlns="http://www.w3.org/2000/svg" p-id="12325" xmlns:xlink="http://www.w3.org/1999/xlink" width="48" height="48"><path d="M608 384h-320c-19.2 0-32 12.8-32 32s12.8 32 32 32h320c19.2 0 32-12.8 32-32S627.2 384 608 384zM608 576h-320c-19.2 0-32 12.8-32 32s12.8 32 32 32h320c19.2 0 32-12.8 32-32S627.2 576 608 576z" fill="#ffffff" p-id="12326"></path><path d="M800 0h-512C236.8 0 192 44.8 192 96V128h-32C108.8 128 64 172.8 64 224v704c0 51.2 44.8 96 96 96h576c51.2 0 96-44.8 96-96V896h32c51.2 0 96-44.8 96-96v-640C960 70.4 889.6 0 800 0zM768 928c0 19.2-12.8 32-32 32h-576c-19.2 0-32-12.8-32-32v-704c0-19.2 12.8-32 32-32h576c19.2 0 32 12.8 32 32v704z m128-128c0 19.2-12.8 32-32 32H832V224c0-51.2-44.8-96-96-96H256v-32c0-19.2 12.8-32 32-32h512c51.2 0 96 44.8 96 96v640z" fill="#ffffff" p-id="12327"></path></svg>