<?xml version="1.0" standalone="no"?><!DOCTYPE svg PUBLIC "-//W3C//DTD SVG 1.1//EN" "http://www.w3.org/Graphics/SVG/1.1/DTD/svg11.dtd"><svg t="1712850286665" class="icon" viewBox="0 0 1024 1024" version="1.1" xmlns="http://www.w3.org/2000/svg" p-id="2401" xmlns:xlink="http://www.w3.org/1999/xlink" width="48" height="48"><path d="M512 512m-512 0a512 512 0 1 0 1024 0 512 512 0 1 0-1024 0Z" fill="#D80027" p-id="2402"></path><path d="M280.2 311.6l44.2 136h143l-115.6 84.2 44.2 136-115.8-84-115.8 84 44.4-136-115.8-84.2H236zM607 793l-33.8-41.6-50 19.4 29-45-33.8-41.8 51.8 13.8 29.2-45 2.8 53.6 52 13.8-50.2 19.2zM674.2 671l16-51.2-43.8-31 53.6-0.8 15.8-51.2 17.4 50.8 53.6-0.6-43 32 17.2 50.8-43.8-31zM764.8 375.8L741.2 424l38.4 37.4-53-7.6-23.6 48-9.2-52.8-53.2-7.6 47.6-25-9.2-53 38.4 37.4zM608.4 229.8l-4 53.4 49.8 20.2-52.2 12.8-3.8 53.6-28.2-45.6-52.2 12.8 34.6-41-28.4-45.4 49.8 20.2z" fill="#FFDA44" p-id="2403"></path></svg>