<?xml version="1.0" standalone="no"?><!DOCTYPE svg PUBLIC "-//W3C//DTD SVG 1.1//EN" "http://www.w3.org/Graphics/SVG/1.1/DTD/svg11.dtd"><svg t="1712850255911" class="icon" viewBox="0 0 1024 1024" version="1.1" xmlns="http://www.w3.org/2000/svg" p-id="1713" xmlns:xlink="http://www.w3.org/1999/xlink" width="48" height="48"><path d="M0 511.999431a511.998862 511.998862 0 1 0 1023.997724 0A511.998862 511.998862 0 1 0 0 511.999431z" fill="#F0F0F0" p-id="1714"></path><path d="M480.36871 513.364761H1023.997724c0-46.079898-6.257764-90.794465-17.976848-133.233481h-525.652166v133.233481z m0-266.410074h467.170518A516.777518 516.777518 0 0 0 827.333273 113.778094h-347.021451v133.233482-0.056889zM503.010438 1023.998293c122.652172 0 235.291922-41.528797 324.265946-111.046864h-648.531892A525.42461 525.42461 0 0 0 502.953549 1023.998293z m-444.52879-244.223457h889.05758a502.782883 502.782883 0 0 0 58.481648-133.233482H0a501.872663 501.872663 0 0 0 58.481648 133.233482z" fill="#D80027" p-id="1715"></path><path d="M237.226139 79.986169h46.648786l-43.406126 31.516374 16.55463 50.972332-43.406126-31.516375-43.463014 31.516375 14.335968-44.088791a514.8433 514.8433 0 0 0-99.270891 110.76242h14.961745l-27.59105 20.024845a511.145531 511.145531 0 0 0-12.40175 21.845284l13.141304 40.675465-24.575946-17.91996a492.31535 492.31535 0 0 0-16.725296 39.708356l14.506635 44.828345h53.646103l-43.406126 31.459486 16.611519 51.02922-43.463015-31.573263-25.941276 18.887069C1.251553 469.332859 0 490.666145 0 511.999431h511.998862V0.000569a508.86998 508.86998 0 0 0-274.772723 79.9856zM256.96654 460.799545l-43.406126-31.573263-43.463014 31.573263 16.668407-51.02922-43.463014-31.516374h53.702991l16.55463-51.02922 16.611519 51.02922h53.589214l-43.349237 31.516374 16.55463 51.02922z m-16.668407-200.191555l16.668407 51.086108-43.406126-31.573263-43.463014 31.573263 16.668407-51.086108-43.463014-31.516375h53.702991l16.55463-50.972331 16.611519 50.972331h53.589214l-43.349237 31.516375h-0.113777zM440.774132 460.799545l-43.463015-31.573263-43.406126 31.573263 16.668408-51.02922-43.463015-31.516374h53.646103l16.611519-51.02922 16.497741 51.02922h53.646103l-43.406126 31.516374 16.668408 51.02922z m-16.668408-200.191555l16.668408 51.086108-43.463015-31.573263-43.406126 31.573263 16.668408-51.086108-43.463015-31.516375h53.646103l16.611519-50.972331 16.497741 50.972331h53.646103l-43.406126 31.516375z m0-149.105447l16.668408 50.972332-43.463015-31.516375-43.406126 31.516375 16.668408-50.972332-43.463015-31.573263h53.646103l16.611519-51.02922 16.497741 51.02922h53.646103l-43.406126 31.573263z" fill="#0052B4" p-id="1716"></path></svg>