<?xml version="1.0" standalone="no"?><!DOCTYPE svg PUBLIC "-//W3C//DTD SVG 1.1//EN" "http://www.w3.org/Graphics/SVG/1.1/DTD/svg11.dtd"><svg t="1712728141442" class="icon" viewBox="0 0 1024 1024" version="1.1" xmlns="http://www.w3.org/2000/svg" p-id="1500" width="48" height="48" xmlns:xlink="http://www.w3.org/1999/xlink"><path d="M926.336 512V110.976q0-4.672 0.96-9.344 0.896-4.608 2.688-8.96 1.856-4.416 4.48-8.32 2.56-3.968 5.952-7.296 3.328-3.328 7.296-5.952 3.904-2.624 8.32-4.48 4.288-1.792 8.96-2.688 4.608-0.96 9.344-0.96t9.408 0.96q4.608 0.896 8.96 2.688 4.416 1.856 8.32 4.48 3.904 2.56 7.296 5.952 3.328 3.328 5.952 7.296 2.56 3.904 4.48 8.32 1.728 4.352 2.688 8.96 0.896 4.672 0.896 9.344V512q0 4.736-0.896 9.344-0.96 4.672-2.752 9.024-1.792 4.352-4.48 8.32-2.56 3.904-5.888 7.232-3.392 3.392-7.296 6.016-3.904 2.56-8.32 4.416-4.352 1.792-8.96 2.752-4.672 0.896-9.408 0.896t-9.344-0.896q-4.672-0.96-8.96-2.752-4.416-1.792-8.32-4.48-3.968-2.56-7.296-5.952-3.328-3.328-5.952-7.232-2.624-3.968-4.48-8.32-1.792-4.352-2.688-8.96-0.96-4.672-0.96-9.408z m96 0q0 4.736-0.896 9.344-0.96 4.672-2.752 9.024-1.792 4.352-4.48 8.32-2.56 3.904-5.888 7.232-3.392 3.392-7.296 6.016-3.904 2.56-8.32 4.416-4.352 1.792-8.96 2.752-4.672 0.896-9.408 0.896t-9.344-0.896q-4.672-0.96-8.96-2.752-4.416-1.792-8.32-4.48-3.968-2.56-7.296-5.952-3.328-3.328-5.952-7.232-2.624-3.968-4.48-8.32-1.792-4.352-2.688-8.96-0.96-4.672-0.96-9.408t0.96-9.344q0.896-4.672 2.688-9.024 1.856-4.352 4.48-8.32 2.56-3.904 5.952-7.232 3.328-3.392 7.296-6.016 3.904-2.56 8.32-4.416 4.288-1.792 8.96-2.752 4.608-0.896 9.344-0.896t9.408 0.896q4.608 0.96 8.96 2.752 4.416 1.792 8.32 4.48 3.904 2.56 7.296 5.952 3.328 3.328 5.952 7.232 2.56 3.968 4.48 8.32 1.728 4.352 2.688 8.96 0.896 4.672 0.896 9.408z m0-401.024q0 4.736-0.896 9.408-0.96 4.608-2.752 8.96-1.792 4.416-4.48 8.32-2.56 3.904-5.888 7.296-3.392 3.328-7.296 5.952-3.904 2.624-8.32 4.48-4.352 1.792-8.96 2.688-4.672 0.896-9.408 0.896t-9.344-0.896q-4.672-0.896-8.96-2.752-4.416-1.792-8.32-4.416-3.968-2.624-7.296-5.952-3.328-3.392-5.952-7.296-2.624-3.904-4.48-8.32-1.792-4.352-2.688-8.96-0.96-4.672-0.96-9.408 0-4.672 0.96-9.344 0.896-4.608 2.688-8.96 1.856-4.416 4.48-8.32 2.56-3.968 5.952-7.296 3.328-3.328 7.296-5.952 3.904-2.624 8.32-4.48 4.288-1.792 8.96-2.688 4.608-0.96 9.344-0.96t9.408 0.96q4.608 0.896 8.96 2.688 4.416 1.856 8.32 4.48 3.904 2.56 7.296 5.952 3.328 3.328 5.952 7.296 2.56 3.904 4.48 8.32 1.728 4.352 2.688 8.96 0.896 4.672 0.896 9.344zM3.712 913.024V512q0-4.736 0.896-9.344 0.96-4.672 2.752-9.024 1.792-4.352 4.48-8.32 2.56-3.904 5.952-7.232 3.328-3.392 7.232-6.016 3.968-2.56 8.32-4.416 4.352-1.792 8.96-2.752 4.672-0.896 9.408-0.896t9.344 0.896q4.672 0.96 8.96 2.752 4.48 1.792 8.32 4.48 3.968 2.56 7.296 5.952 3.328 3.328 5.952 7.232 2.688 3.968 4.48 8.32 1.792 4.352 2.688 8.96 0.96 4.672 0.96 9.408v401.024q0 4.672-0.96 9.344-0.896 4.608-2.688 8.96-1.792 4.416-4.48 8.32-2.56 3.968-5.952 7.296-3.328 3.328-7.232 5.952-3.968 2.624-8.32 4.48-4.352 1.792-8.96 2.688-4.672 0.96-9.408 0.96T42.368 960q-4.672-0.896-9.024-2.688-4.352-1.856-8.32-4.48-3.904-2.56-7.232-5.952-3.392-3.328-6.016-7.296-2.56-3.904-4.416-8.32-1.792-4.352-2.752-8.96-0.896-4.672-0.896-9.344z m96 0q0 4.672-0.96 9.344-0.896 4.608-2.688 8.96-1.792 4.416-4.48 8.32-2.56 3.968-5.952 7.296-3.328 3.328-7.232 5.952-3.968 2.624-8.32 4.48-4.352 1.792-8.96 2.688-4.672 0.96-9.408 0.96T42.368 960q-4.672-0.896-9.024-2.688-4.352-1.856-8.32-4.48-3.904-2.56-7.232-5.952-3.392-3.328-6.016-7.296-2.56-3.904-4.416-8.32-1.792-4.352-2.752-8.96-0.896-4.672-0.896-9.344 0-4.736 0.896-9.408 0.96-4.608 2.752-8.96 1.792-4.416 4.48-8.32 2.56-3.904 5.952-7.296 3.328-3.328 7.232-5.952 3.968-2.624 8.32-4.48 4.352-1.792 8.96-2.688 4.672-0.896 9.408-0.896t9.344 0.896q4.672 0.896 8.96 2.752 4.48 1.792 8.32 4.416 3.968 2.624 7.296 5.952 3.328 3.392 5.952 7.296 2.688 3.904 4.48 8.32 1.792 4.352 2.688 8.96 0.96 4.672 0.96 9.408z m0-401.024q0 4.736-0.96 9.344-0.896 4.672-2.688 9.024-1.792 4.352-4.48 8.32-2.56 3.904-5.952 7.232-3.328 3.392-7.232 6.016-3.968 2.56-8.32 4.416-4.352 1.792-8.96 2.752-4.672 0.896-9.408 0.896t-9.344-0.896Q37.696 558.08 33.28 556.352q-4.352-1.792-8.32-4.48-3.904-2.56-7.232-5.952-3.392-3.328-6.016-7.232-2.56-3.968-4.416-8.32-1.792-4.352-2.752-8.96Q3.712 516.672 3.712 512t0.896-9.344q0.96-4.672 2.752-9.024 1.792-4.352 4.48-8.32 2.56-3.904 5.952-7.232 3.328-3.392 7.232-6.016 3.968-2.56 8.32-4.416 4.352-1.792 8.96-2.752 4.672-0.896 9.408-0.896t9.344 0.896q4.672 0.96 8.96 2.752 4.48 1.792 8.32 4.48 3.968 2.56 7.296 5.952 3.328 3.328 5.952 7.232 2.688 3.968 4.48 8.32 1.792 4.352 2.688 8.96 0.96 4.672 0.96 9.408z" fill="#ffffff" p-id="1501"></path><path d="M858.624 871.04Q713.6 1011.008 512 1011.008q-206.72 0-352.96-146.176Q12.864 718.592 12.864 511.872q0-4.736 0.896-9.344 0.96-4.672 2.752-9.024 1.792-4.352 4.48-8.32 2.56-3.904 5.952-7.232 3.328-3.392 7.232-6.016 3.968-2.56 8.32-4.416 4.352-1.792 8.96-2.752 4.672-0.896 9.408-0.896t9.344 0.896q4.672 0.96 8.96 2.752 4.48 1.792 8.32 4.48 3.968 2.56 7.296 5.952 3.328 3.328 6.016 7.232 2.56 3.968 4.416 8.32 1.792 4.352 2.752 8.96 0.896 4.672 0.896 9.408 0 167.04 118.08 285.056Q344.96 915.008 512 915.008q162.816 0 280-113.088 3.392-3.2 7.36-5.76 3.968-2.56 8.32-4.352 4.48-1.728 9.088-2.56 4.672-0.832 9.408-0.768 4.736 0.064 9.344 1.088t8.96 2.88q4.288 1.92 8.192 4.608 3.84 2.688 7.168 6.08 3.264 3.392 5.824 7.36 2.56 4.032 4.288 8.384 1.728 4.416 2.56 9.088 0.896 4.608 0.768 9.344-0.064 4.736-1.088 9.344-0.96 4.672-2.88 8.96-1.92 4.352-4.544 8.256-2.752 3.84-6.144 7.168zM152.832 165.248Q222.272 93.44 313.6 53.76 408.128 12.8 512 12.8q206.72 0 352.96 146.112 146.176 146.24 146.176 352.96 0 4.736-0.896 9.344-0.896 4.672-2.752 9.024-1.792 4.352-4.48 8.32-2.56 3.904-5.888 7.232-3.392 3.392-7.296 6.016-3.904 2.56-8.32 4.416-4.352 1.792-8.96 2.752-4.672 0.896-9.408 0.896t-9.344-0.896q-4.608-0.96-8.96-2.752-4.416-1.792-8.32-4.48-3.968-2.56-7.296-5.952-3.328-3.328-5.952-7.232-2.624-3.968-4.48-8.32-1.792-4.352-2.688-8.96-0.96-4.672-0.96-9.408 0-166.976-118.08-285.056Q679.04 108.8 512 108.8q-171.136 0-290.112 123.2-3.2 3.392-7.168 6.08-3.84 2.688-8.192 4.608-4.352 1.92-8.96 2.88-4.608 1.024-9.344 1.088-4.736 0.064-9.344-0.768-4.672-0.832-9.088-2.56-4.416-1.728-8.32-4.288-4.032-2.56-7.424-5.824-3.392-3.328-6.08-7.168-2.688-3.904-4.608-8.256-1.92-4.352-2.88-8.96-1.024-4.608-1.088-9.344-0.064-4.736 0.768-9.344 0.832-4.672 2.56-9.088 1.728-4.352 4.288-8.32 2.56-4.032 5.824-7.424z m-43.968 346.624q0 4.736-0.896 9.344-0.96 4.672-2.752 9.024-1.792 4.352-4.48 8.32-2.56 3.904-5.952 7.232-3.328 3.392-7.232 6.016-3.968 2.56-8.32 4.416-4.352 1.792-8.96 2.752-4.672 0.896-9.408 0.896t-9.344-0.896Q46.848 558.016 42.496 556.16q-4.352-1.792-8.32-4.48-3.904-2.56-7.232-5.952-3.392-3.328-6.016-7.232-2.56-3.968-4.416-8.32-1.792-4.352-2.752-8.96-0.896-4.672-0.896-9.408t0.896-9.344q0.96-4.672 2.752-9.024 1.792-4.352 4.48-8.32 2.56-3.904 5.952-7.232 3.328-3.392 7.232-6.016 3.968-2.56 8.32-4.416 4.352-1.792 8.96-2.752 4.672-0.896 9.408-0.896t9.344 0.896q4.672 0.96 8.96 2.752 4.48 1.792 8.32 4.48 3.968 2.56 7.296 5.952 3.328 3.328 6.016 7.232 2.56 3.968 4.416 8.32 1.792 4.352 2.752 8.96 0.896 4.672 0.896 9.408z m126.528-313.28q0 4.736-0.96 9.344-0.896 4.672-2.688 9.024-1.792 4.352-4.48 8.32-2.56 3.904-5.952 7.232-3.328 3.392-7.232 6.016-3.968 2.56-8.32 4.416-4.352 1.792-8.96 2.752-4.672 0.896-9.408 0.896t-9.344-0.896q-4.672-0.96-9.024-2.752-4.352-1.792-8.32-4.48-3.904-2.56-7.232-5.952-3.392-3.328-6.016-7.232-2.56-3.968-4.416-8.32-1.792-4.352-2.752-8.96-0.896-4.672-0.896-9.408t0.896-9.344q0.96-4.672 2.752-9.024 1.792-4.352 4.48-8.32 2.56-3.904 5.952-7.232 3.328-3.392 7.232-6.016 3.968-2.56 8.32-4.416 4.352-1.792 8.96-2.752 4.672-0.896 9.408-0.896t9.344 0.896q4.672 0.96 8.96 2.752 4.48 1.792 8.32 4.48 3.968 2.56 7.296 5.952 3.328 3.328 5.952 7.232 2.688 3.968 4.48 8.32 1.792 4.352 2.688 8.96 0.96 4.672 0.96 9.408z m637.888 637.888q0 4.736-0.896 9.344-0.896 4.672-2.752 9.024-1.792 4.352-4.416 8.32-2.624 3.904-5.952 7.232-3.328 3.392-7.296 6.016-3.904 2.56-8.32 4.416-4.352 1.792-8.96 2.752-4.672 0.896-9.408 0.896-4.672 0-9.344-0.896-4.608-0.96-8.96-2.752-4.416-1.792-8.32-4.48-3.968-2.56-7.296-5.952-3.328-3.328-5.952-7.232-2.624-3.968-4.48-8.32-1.792-4.352-2.688-8.96-0.96-4.672-0.96-9.408t0.96-9.344q0.896-4.672 2.752-9.024 1.792-4.352 4.416-8.32 2.56-3.904 5.952-7.232 3.328-3.328 7.296-6.016 3.904-2.56 8.32-4.416 4.352-1.792 8.96-2.752 4.672-0.896 9.344-0.896 4.736 0 9.408 0.896 4.608 0.96 8.96 2.752 4.416 1.792 8.32 4.48 3.968 2.56 7.296 5.952 3.328 3.328 5.952 7.232 2.624 3.968 4.48 8.32 1.792 4.352 2.688 8.96 0.896 4.672 0.896 9.408zM1011.2 511.872q0 4.736-0.896 9.344-0.896 4.672-2.752 9.024-1.792 4.352-4.48 8.32-2.56 3.904-5.888 7.232-3.392 3.392-7.296 6.016-3.904 2.56-8.32 4.416-4.352 1.792-8.96 2.752-4.672 0.896-9.408 0.896t-9.344-0.896q-4.608-0.96-8.96-2.752-4.416-1.792-8.32-4.48-3.968-2.56-7.296-5.952-3.328-3.328-5.952-7.232-2.624-3.968-4.48-8.32-1.792-4.352-2.688-8.96-0.96-4.672-0.96-9.408t0.96-9.344q0.896-4.672 2.688-9.024 1.856-4.352 4.48-8.32 2.56-3.904 5.952-7.232 3.328-3.392 7.296-6.016 3.904-2.56 8.32-4.416 4.352-1.792 8.96-2.752 4.608-0.896 9.344-0.896t9.408 0.896q4.608 0.96 8.96 2.752 4.416 1.792 8.32 4.48 3.904 2.56 7.296 5.952 3.328 3.328 5.952 7.232 2.56 3.968 4.48 8.32 1.792 4.352 2.688 8.96 0.896 4.672 0.896 9.408z" fill="#ffffff" p-id="1502"></path><path d="M663.36 414.528a160 160 0 1 1-320-0.064 160 160 0 0 1 320 0z m-96 0q0-26.496-18.752-45.248t-45.248-18.752q-26.56 0-45.312 18.752t-18.752 45.248q0 26.496 18.752 45.184 18.752 18.816 45.312 18.816 26.496 0 45.248-18.816 18.752-18.688 18.752-45.184z" fill="#ffffff" p-id="1503"></path><path d="M452.096 769.472V574.528h96v194.944h-96z m96 0q0 4.736-0.96 9.408-0.896 4.608-2.688 8.96-1.856 4.416-4.48 8.32-2.56 3.968-5.952 7.296-3.328 3.328-7.232 5.952-3.968 2.624-8.32 4.48-4.352 1.792-8.96 2.688-4.672 0.896-9.408 0.896t-9.344-0.896q-4.672-0.896-9.024-2.752-4.352-1.792-8.32-4.416-3.904-2.624-7.232-5.952-3.392-3.328-6.016-7.296-2.56-3.904-4.48-8.32-1.728-4.352-2.688-8.96-0.896-4.672-0.896-9.408 0-4.672 0.896-9.344 0.96-4.608 2.752-8.96 1.792-4.416 4.48-8.32 2.56-3.968 5.952-7.296 3.328-3.328 7.232-5.952 3.968-2.624 8.32-4.48 4.352-1.792 8.96-2.688 4.672-0.96 9.408-0.96t9.344 0.96q4.672 0.896 8.96 2.752 4.48 1.792 8.32 4.416 3.968 2.56 7.296 5.952 3.328 3.328 5.952 7.296 2.624 3.904 4.48 8.32 1.792 4.352 2.688 8.96 0.96 4.672 0.96 9.344z m0-194.944q0 4.672-0.96 9.344-0.896 4.608-2.688 8.96-1.856 4.416-4.48 8.32-2.56 3.968-5.952 7.296-3.328 3.328-7.232 5.952-3.968 2.624-8.32 4.48-4.352 1.792-8.96 2.688-4.672 0.96-9.408 0.96t-9.344-0.96q-4.672-0.896-9.024-2.752-4.352-1.792-8.32-4.416-3.904-2.56-7.232-5.952-3.392-3.328-6.016-7.296-2.56-3.904-4.48-8.32-1.728-4.352-2.688-8.96-0.896-4.672-0.896-9.344 0-4.736 0.896-9.408 0.96-4.608 2.752-8.96 1.792-4.416 4.48-8.32 2.56-3.968 5.952-7.296 3.328-3.328 7.232-5.952 3.968-2.624 8.32-4.48 4.352-1.792 8.96-2.688 4.672-0.896 9.408-0.896t9.344 0.896q4.672 0.896 8.96 2.752 4.48 1.792 8.32 4.416 3.968 2.624 7.296 5.952 3.328 3.328 5.952 7.296 2.624 3.904 4.48 8.32 1.792 4.352 2.688 8.96 0.96 4.672 0.96 9.408z" fill="#ffffff" p-id="1504"></path><path d="M662.784 734.272H503.36v-96h159.36v96z m48-48q0 4.736-0.96 9.344-0.896 4.608-2.688 8.96-1.856 4.416-4.48 8.32-2.56 3.968-5.952 7.296-3.328 3.328-7.232 5.952-3.968 2.624-8.32 4.48-4.352 1.792-8.96 2.688-4.672 0.96-9.408 0.96t-9.344-0.96q-4.672-0.896-9.024-2.688-4.352-1.856-8.32-4.48-3.904-2.56-7.232-5.952-3.392-3.328-6.016-7.296-2.56-3.904-4.48-8.32-1.728-4.352-2.688-8.96-0.896-4.608-0.896-9.344t0.896-9.408q0.96-4.608 2.752-8.96 1.792-4.416 4.48-8.32 2.56-3.904 5.952-7.296 3.328-3.328 7.232-5.952 3.968-2.624 8.32-4.48 4.352-1.792 8.96-2.688 4.672-0.896 9.408-0.896t9.344 0.896q4.672 0.896 8.96 2.752 4.48 1.792 8.32 4.48 3.968 2.56 7.296 5.888 3.328 3.392 5.952 7.296 2.624 3.904 4.48 8.32 1.792 4.352 2.688 8.96 0.96 4.672 0.96 9.408z m-159.424 0q0 4.736-0.96 9.344-0.896 4.608-2.752 8.96-1.792 4.416-4.416 8.32-2.56 3.968-5.952 7.296-3.328 3.328-7.296 5.952-3.904 2.624-8.32 4.48-4.352 1.792-8.96 2.688-4.672 0.96-9.344 0.96-4.736 0-9.408-0.96-4.608-0.896-8.96-2.688-4.416-1.856-8.32-4.48-3.968-2.56-7.296-5.952-3.328-3.328-5.952-7.296-2.624-3.904-4.48-8.32-1.792-4.352-2.688-8.96-0.896-4.608-0.896-9.344t0.896-9.408q0.896-4.608 2.752-8.96 1.792-4.416 4.416-8.32 2.56-3.904 5.952-7.296 3.328-3.328 7.296-5.952 3.904-2.624 8.32-4.48 4.352-1.792 8.96-2.688 4.672-0.896 9.408-0.896 4.672 0 9.344 0.896 4.608 0.896 8.96 2.752 4.416 1.792 8.32 4.48 3.968 2.56 7.296 5.888 3.328 3.392 5.952 7.296 2.624 3.904 4.48 8.32 1.792 4.352 2.688 8.96 0.96 4.672 0.96 9.408z" fill="#ffffff" p-id="1505"></path></svg>