<?xml version="1.0" standalone="no"?><!DOCTYPE svg PUBLIC "-//W3C//DTD SVG 1.1//EN" "http://www.w3.org/Graphics/SVG/1.1/DTD/svg11.dtd"><svg t="1712825574385" class="icon" viewBox="0 0 1024 1024" version="1.1" xmlns="http://www.w3.org/2000/svg" p-id="17522" xmlns:xlink="http://www.w3.org/1999/xlink" width="48" height="48"><path d="M538.432 201.152c226.624 0 410.432 184.192 410.432 411.392S765.056 1024 538.432 1024C311.808 1024 128 839.744 128 612.544c0-94.144 31.936-180.992 84.8-250.496l65.664 64.896a322.24 322.24 0 0 0-59.264 185.6c0 176.96 142.72 320 319.232 320a319.36 319.36 0 0 0 319.232-320c0-176.896-142.72-320-319.232-320v137.152l-182.4-182.848L538.432 64v137.152z" fill="#ffffff" p-id="17523"></path><path d="M468.864 773.568l208.704-173.888-208.64-173.952v347.84z" fill="#ffffff" p-id="17524"></path></svg>